<?xml version="1.0" ?><svg data-name="Layer 1" id="Layer_1" viewBox="0 0 128 128" xmlns="http://www.w3.org/2000/svg"><title/><path d="M115.46,2H12.54A10.66726,10.66726,0,0,0,1.89,12.66V115.34A10.66731,10.66731,0,0,0,12.54,126H115.46a10.66731,10.66731,0,0,0,10.65-10.66V12.66A10.66726,10.66726,0,0,0,115.46,2ZM22.51,27.04a5.54383,5.54383,0,0,1,5.54-5.53h8.58a5.53526,5.53526,0,0,1,5.53,5.53v8.59a5.53526,5.53526,0,0,1-5.53,5.53H28.05a5.54383,5.54383,0,0,1-5.54-5.53Zm21.86,77.74a1.70715,1.70715,0,0,1-1.7,1.71H22.07a1.70715,1.70715,0,0,1-1.7-1.71V44.61a1.70715,1.70715,0,0,1,1.7-1.71h20.6a1.70715,1.70715,0,0,1,1.7,1.71Zm63.26,0a1.70715,1.70715,0,0,1-1.7,1.71H89.29a1.7071,1.7071,0,0,1-1.7-1.71V72.03c0-2.9-.32-6.99-3.1-9.03-3.62-2.67-8.34-1.4-11.13,1.22-1.88,1.75-2.79,4.44-2.79,8.22v32.34a1.71571,1.71571,0,0,1-1.71,1.71H52.23a1.71566,1.71566,0,0,1-1.71-1.71V44.61a1.71566,1.71566,0,0,1,1.71-1.71H68.86a1.71571,1.71571,0,0,1,1.71,1.71v1.26c.13-.08.26-.17.39-.25a23.394,23.394,0,0,1,12.43-3.54c7.14,0,13.03,2.36,17.53,7.02,5.55,5.75,6.71,13.75,6.71,19.44Z"/></svg>